<?xml version="1.0" encoding="utf-8"?>
<!-- Generator: Adobe Illustrator 24.0.2, SVG Export Plug-In . SVG Version: 6.00 Build 0)  -->
<svg version="1.1" id="Capa_1" xmlns="http://www.w3.org/2000/svg" xmlns:xlink="http://www.w3.org/1999/xlink" x="0px" y="0px"
	 viewBox="0 0 3600 1800" style="enable-background:new 0 0 3600 1800;" xml:space="preserve">
<style type="text/css">
	.st0{fill:#FFFFFF;}
	.st1{clip-path:url(#SVGID_2_);}
	.st2{fill:none;}
	.st3{font-family:'Arial-BoldMT';}
	.st4{font-size:36px;}
	.st5{font-family:'ArialMT';}
	.st6{clip-path:url(#SVGID_6_);}
	.st7{fill:none;stroke:#000000;stroke-width:0.75;stroke-linecap:round;stroke-linejoin:round;stroke-miterlimit:10;}
	.st8{fill:#E16A86;stroke:#FFFFFF;stroke-width:0.75;stroke-linecap:round;stroke-linejoin:round;stroke-miterlimit:10;}
	.st9{fill:#E790A1;stroke:#FFFFFF;stroke-width:0.75;stroke-linecap:round;stroke-linejoin:round;stroke-miterlimit:10;}
	.st10{fill:#E8BCC4;stroke:#FFFFFF;stroke-width:0.75;stroke-linecap:round;stroke-linejoin:round;stroke-miterlimit:10;}
	.st11{fill:#C1C6E5;stroke:#FFFFFF;stroke-width:0.75;stroke-linecap:round;stroke-linejoin:round;stroke-miterlimit:10;}
	.st12{fill:#98A5E5;stroke:#FFFFFF;stroke-width:0.75;stroke-linecap:round;stroke-linejoin:round;stroke-miterlimit:10;}
	.st13{fill:#768BE6;stroke:#FFFFFF;stroke-width:0.75;stroke-linecap:round;stroke-linejoin:round;stroke-miterlimit:10;}
	.st14{clip-path:url(#SVGID_8_);}
	.st15{fill:none;stroke:#A6A6A6;stroke-width:0.75;stroke-linecap:round;stroke-linejoin:round;stroke-miterlimit:10;}
	.st16{fill:#C1C6E5;stroke:#C1C6E5;stroke-width:0.75;stroke-linecap:round;stroke-linejoin:round;stroke-miterlimit:10;}
	.st17{fill:#98A5E5;stroke:#98A5E5;stroke-width:0.75;stroke-linecap:round;stroke-linejoin:round;stroke-miterlimit:10;}
	.st18{fill:#768BE6;stroke:#768BE6;stroke-width:0.75;stroke-linecap:round;stroke-linejoin:round;stroke-miterlimit:10;}
	.st19{fill:#E8BCC4;stroke:#E8BCC4;stroke-width:0.75;stroke-linecap:round;stroke-linejoin:round;stroke-miterlimit:10;}
	.st20{fill:#E790A1;stroke:#E790A1;stroke-width:0.75;stroke-linecap:round;stroke-linejoin:round;stroke-miterlimit:10;}
	.st21{fill:#E16A86;stroke:#E16A86;stroke-width:0.75;stroke-linecap:round;stroke-linejoin:round;stroke-miterlimit:10;}
	
		.st22{clip-path:url(#SVGID_8_);fill:none;stroke:#000000;stroke-width:0.75;stroke-linecap:round;stroke-linejoin:round;stroke-miterlimit:10;}
	.st23{clip-path:url(#SVGID_8_);fill:none;}
	.st24{enable-background:new    ;}
	.st25{letter-spacing:6;}
	.st26{letter-spacing:4;}
	.st27{letter-spacing:5;}
	.st28{letter-spacing:13;}
	.st29{letter-spacing:18;}
	.st30{letter-spacing:10;}
</style>
<rect x="1" class="st0" width="3600" height="1800"/>
<g>
	<defs>
		<rect id="SVGID_1_" width="3600" height="1800"/>
	</defs>
	<clipPath id="SVGID_2_">
		<use xlink:href="#SVGID_1_"  style="overflow:visible;"/>
	</clipPath>
	<g class="st1">
		<rect class="st2" width="3600" height="1800"/>
		<rect x="787.7" y="0.9" class="st2" width="2024.6" height="44.4"/>
		<text transform="matrix(1 0 0 1 787.7109 31.7798)" class="st3 st4">Marque la opción que mejor represente su conocimiento y experiencia con cada práctica en los últimos 5 (cinco) años</text>
		<rect x="2695.5" y="1507.7" class="st2" width="124.1" height="42.6"/>
		<text transform="matrix(1 0 0 1 2695.4668 1538.6104)" class="st5 st4">Percent</text>
	</g>
</g>
<g>
	<defs>
		<rect id="SVGID_3_" x="1938.3" y="60.8" width="1638.3" height="1403.3"/>
	</defs>
	<clipPath id="SVGID_4_">
		<use xlink:href="#SVGID_3_"  style="overflow:visible;"/>
	</clipPath>
</g>
<g>
	<defs>
		<rect id="SVGID_5_" width="3600" height="1800"/>
	</defs>
	<clipPath id="SVGID_6_">
		<use xlink:href="#SVGID_5_"  style="overflow:visible;"/>
	</clipPath>
	<g class="st6">
		<line class="st7" x1="2294" y1="60.8" x2="2294" y2="55.1"/>
		<line class="st7" x1="2768" y1="60.8" x2="2768" y2="55.1"/>
		<line class="st7" x1="3242.1" y1="60.8" x2="3242.1" y2="55.1"/>
		<line class="st7" x1="2294" y1="1464.1" x2="2294" y2="1469.7"/>
		<line class="st7" x1="2768" y1="1464.1" x2="2768" y2="1469.7"/>
		<line class="st7" x1="3242.1" y1="1464.1" x2="3242.1" y2="1469.7"/>
		<rect x="2274" y="1470.3" class="st2" width="40" height="42.6"/>
		<text transform="matrix(1 0 0 1 2273.959 1501.1602)" class="st5 st4">50</text>
		<text transform="matrix(1 0 0 1 2758.0193 1501.16)" class="st5 st4">0</text>
		<rect x="3222.1" y="1470.3" class="st2" width="40" height="42.6"/>
		<text transform="matrix(1 0 0 1 3222.0684 1501.1602)" class="st5 st4">50</text>
	</g>
</g>
<g>
	<rect x="2114.8" y="1586.8" class="st2" width="638.4" height="42.6"/>
	<text transform="matrix(1 0 0 1 2114.7798 1617.7214)" class="st5 st4">Nunca lo hice, ni escuché hablar de eso</text>
	<rect x="2813.2" y="1590.5" class="st8" width="13.4" height="28.7"/>
	<rect x="2070.7" y="1634.4" class="st2" width="682.5" height="42.6"/>
	<text transform="matrix(1 0 0 1 2070.7397 1665.3043)" class="st5 st4">Nunca lo hice, pero escuché hablar de eso</text>
	<rect x="2813.2" y="1638.1" class="st9" width="13.4" height="28.7"/>
	<rect x="2168.9" y="1682" class="st2" width="584.3" height="42.6"/>
	<text transform="matrix(1 0 0 1 2168.8696 1712.8872)" class="st5 st4">Nunca lo hice, pero sé cómo hacerlo</text>
	<rect x="2813.2" y="1685.7" class="st10" width="13.4" height="28.7"/>
	<rect x="2876.6" y="1586.8" class="st2" width="494.4" height="42.6"/>
	<text transform="matrix(1 0 0 1 2876.5596 1617.7212)" class="st5 st4">Lo intenté, pero no lo completé</text>
	<rect x="3430.9" y="1590.5" class="st11" width="13.4" height="28.7"/>
	<rect x="2876.6" y="1634.4" class="st2" width="334.2" height="42.6"/>
	<text transform="matrix(1 0 0 1 2876.5596 1665.3041)" class="st5 st4">Sí, lo estoy haciendo</text>
	<rect x="3430.9" y="1638.9" class="st12" width="13.4" height="28.7"/>
	<rect x="2876.6" y="1682" class="st2" width="240.2" height="42.6"/>
	<text transform="matrix(1 0 0 1 2876.5596 1712.887)" class="st5 st4">Sí, lo he hecho</text>
	<rect x="3430.9" y="1686.5" class="st13" width="13.4" height="28.7"/>
</g>
<g>
	<defs>
		<rect id="SVGID_7_" x="1938.3" y="60.8" width="1638.3" height="1403.3"/>
	</defs>
	<clipPath id="SVGID_8_">
		<use xlink:href="#SVGID_7_"  style="overflow:visible;"/>
	</clipPath>
	<g class="st14">
		<line class="st15" x1="2768" y1="1464.1" x2="2768" y2="60.8"/>
		<rect x="2768" y="1347.1" class="st16" width="21.1" height="83.5"/>
		<rect x="2789.1" y="1347.1" class="st17" width="84.3" height="83.5"/>
		<rect x="2873.4" y="1347.1" class="st18" width="73.7" height="83.5"/>
		<rect x="2631.1" y="1347.1" class="st19" width="136.9" height="83.5"/>
		<rect x="2294" y="1347.1" class="st20" width="337.1" height="83.5"/>
		<rect x="1999" y="1347.1" class="st21" width="295" height="83.5"/>
		<rect x="2768" y="1221.8" class="st16" width="31.6" height="83.5"/>
		<rect x="2799.6" y="1221.8" class="st17" width="94.8" height="83.5"/>
		<rect x="2894.4" y="1221.8" class="st18" width="126.4" height="83.5"/>
		<rect x="2546.8" y="1221.8" class="st19" width="221.2" height="83.5"/>
		<rect x="2157" y="1221.8" class="st20" width="389.8" height="83.5"/>
		<rect x="2072.8" y="1221.8" class="st21" width="84.3" height="83.5"/>
		<rect x="2768" y="1096.5" class="st17" width="105.3" height="83.5"/>
		<rect x="2873.4" y="1096.5" class="st18" width="158" height="83.5"/>
		<rect x="2494.1" y="1096.5" class="st19" width="273.9" height="83.5"/>
		<rect x="2157" y="1096.5" class="st20" width="337.1" height="83.5"/>
		<rect x="2083.3" y="1096.5" class="st21" width="73.7" height="83.5"/>
		<rect x="2768" y="971.2" class="st16" width="21.1" height="83.5"/>
		<rect x="2789.1" y="971.2" class="st17" width="84.3" height="83.5"/>
		<rect x="2873.4" y="971.2" class="st18" width="189.6" height="83.5"/>
		<rect x="2515.2" y="971.2" class="st19" width="252.8" height="83.5"/>
		<rect x="2178.1" y="971.2" class="st20" width="337.1" height="83.5"/>
		<rect x="2114.9" y="971.2" class="st21" width="63.2" height="83.5"/>
		<rect x="2768" y="845.9" class="st16" width="42.1" height="83.5"/>
		<rect x="2810.2" y="845.9" class="st17" width="84.3" height="83.5"/>
		<rect x="2894.4" y="845.9" class="st18" width="231.8" height="83.5"/>
		<rect x="2620.6" y="845.9" class="st19" width="147.5" height="83.5"/>
		<rect x="2367.7" y="845.9" class="st20" width="252.8" height="83.5"/>
		<rect x="2178.1" y="845.9" class="st21" width="189.6" height="83.5"/>
		<rect x="2768" y="720.7" class="st16" width="21.1" height="83.5"/>
		<rect x="2789.1" y="720.7" class="st17" width="105.3" height="83.5"/>
		<rect x="2894.4" y="720.7" class="st18" width="231.8" height="83.5"/>
		<rect x="2588.9" y="720.7" class="st19" width="179.1" height="83.5"/>
		<rect x="2251.8" y="720.7" class="st20" width="337.1" height="83.5"/>
		<rect x="2178.1" y="720.7" class="st21" width="73.7" height="83.5"/>
		<rect x="2768" y="595.4" class="st16" width="52.7" height="83.5"/>
		<rect x="2820.7" y="595.4" class="st17" width="126.4" height="83.5"/>
		<rect x="2947.1" y="595.4" class="st18" width="189.6" height="83.5"/>
		<rect x="2567.9" y="595.4" class="st19" width="200.2" height="83.5"/>
		<rect x="2241.3" y="595.4" class="st20" width="326.6" height="83.5"/>
		<rect x="2188.6" y="595.4" class="st21" width="52.7" height="83.5"/>
		<rect x="2768" y="470.1" class="st16" width="63.2" height="83.5"/>
		<rect x="2831.2" y="470.1" class="st17" width="126.4" height="83.5"/>
		<rect x="2957.6" y="470.1" class="st18" width="189.6" height="83.5"/>
		<rect x="2536.3" y="470.1" class="st19" width="231.8" height="83.5"/>
		<rect x="2209.7" y="470.1" class="st20" width="326.6" height="83.5"/>
		<rect x="2199.2" y="470.1" class="st21" width="10.5" height="83.5"/>
		<rect x="2768" y="344.8" class="st16" width="21.1" height="83.5"/>
		<rect x="2789.1" y="344.8" class="st17" width="115.9" height="83.5"/>
		<rect x="2905" y="344.8" class="st18" width="263.4" height="83.5"/>
		<rect x="2462.5" y="344.8" class="st19" width="305.5" height="83.5"/>
		<rect x="2241.3" y="344.8" class="st20" width="221.2" height="83.5"/>
		<rect x="2220.2" y="344.8" class="st21" width="21.1" height="83.5"/>
		<rect x="2768" y="219.5" class="st16" width="42.1" height="83.5"/>
		<rect x="2810.2" y="219.5" class="st17" width="210.7" height="83.5"/>
		<rect x="3020.9" y="219.5" class="st18" width="421.4" height="83.5"/>
		<rect x="2652.1" y="219.5" class="st19" width="115.9" height="83.5"/>
		<rect x="2494.1" y="219.5" class="st20" width="158" height="83.5"/>
		<rect x="2768" y="94.2" class="st16" width="31.6" height="83.5"/>
		<rect x="2799.6" y="94.2" class="st17" width="179.1" height="83.5"/>
		<rect x="2978.7" y="94.2" class="st18" width="537.3" height="83.5"/>
		<rect x="2641.6" y="94.2" class="st19" width="126.4" height="83.5"/>
		<rect x="2567.9" y="94.2" class="st20" width="73.7" height="83.5"/>
	</g>
	<rect x="1938.3" y="60.8" class="st22" width="1638.3" height="1403.3"/>
	<rect x="2405.6" y="1538.6" class="st23" width="703.9" height="249.4"/>
</g>
<rect class="st2" width="3600" height="1800"/>
<rect x="867.1" y="1370.9" class="st2" width="1060.6" height="42.6"/>
<text transform="matrix(1 0 0 1 867.1289 1401.7598)" class="st24"><tspan x="0" y="0" class="st5 st4">Pre-registrar</tspan><tspan x="200" y="0" class="st5 st4 st25"> </tspan><tspan x="216" y="0" class="st5 st4">un</tspan><tspan x="256.1" y="0" class="st5 st4 st25"> </tspan><tspan x="272.1" y="0" class="st5 st4">estudio</tspan><tspan x="388.2" y="0" class="st5 st4 st25"> </tspan><tspan x="404.2" y="0" class="st5 st4">antes</tspan><tspan x="492.3" y="0" class="st5 st4 st25"> </tspan><tspan x="508.3" y="0" class="st5 st4">de</tspan><tspan x="548.3" y="0" class="st5 st4 st25"> </tspan><tspan x="564.3" y="0" class="st5 st4">iniciar</tspan><tspan x="658.3" y="0" class="st5 st4 st25"> </tspan><tspan x="674.3" y="0" class="st5 st4">la</tspan><tspan x="702.4" y="0" class="st5 st4 st25"> </tspan><tspan x="718.4" y="0" class="st5 st4">recolección</tspan><tspan x="900.5" y="0" class="st5 st4 st25"> </tspan><tspan x="916.5" y="0" class="st5 st4">de</tspan><tspan x="956.5" y="0" class="st5 st4 st25"> </tspan><tspan x="972.5" y="0" class="st5 st4">datos </tspan></text>
<rect x="335" y="1245.6" class="st2" width="1592.7" height="42.6"/>
<text transform="matrix(1 0 0 1 334.9863 1276.4697)" class="st24"><tspan x="0" y="0" class="st5 st4">Compartir</tspan><tspan x="158" y="0" class="st5 st4 st26"> </tspan><tspan x="172.5" y="0" class="st5 st4">los</tspan><tspan x="218.6" y="0" class="st5 st4 st26"> </tspan><tspan x="233.1" y="0" class="st5 st4">métodos</tspan><tspan x="371.1" y="0" class="st5 st4 st26"> </tspan><tspan x="385.6" y="0" class="st5 st4">analíticos</tspan><tspan x="537.7" y="0" class="st5 st4 st26"> </tspan><tspan x="552.2" y="0" class="st5 st4">(e.g.,</tspan><tspan x="634.3" y="0" class="st5 st4 st26"> </tspan><tspan x="648.8" y="0" class="st5 st4">scripts</tspan><tspan x="752.8" y="0" class="st5 st4 st26"> </tspan><tspan x="767.3" y="0" class="st5 st4">de</tspan><tspan x="807.3" y="0" class="st5 st4 st26"> </tspan><tspan x="821.8" y="0" class="st5 st4">análisis)</tspan><tspan x="953.9" y="0" class="st5 st4 st26"> </tspan><tspan x="968.4" y="0" class="st5 st4">en</tspan><tspan x="1008.4" y="0" class="st5 st4 st26"> </tspan><tspan x="1022.9" y="0" class="st5 st4">plataformas</tspan><tspan x="1211" y="0" class="st5 st4 st26"> </tspan><tspan x="1225.5" y="0" class="st5 st4">o</tspan><tspan x="1245.6" y="0" class="st5 st4 st26"> </tspan><tspan x="1260.1" y="0" class="st5 st4">repositorios</tspan><tspan x="1446.1" y="0" class="st5 st4 st26"> </tspan><tspan x="1460.6" y="0" class="st5 st4">públicos</tspan></text>
<rect x="522.9" y="1120.3" class="st2" width="1404.8" height="42.6"/>
<text transform="matrix(1 0 0 1 522.9141 1151.1797)" class="st24"><tspan x="0" y="0" class="st5 st4">Poner</tspan><tspan x="96.1" y="0" class="st5 st4 st25"> </tspan><tspan x="112.1" y="0" class="st5 st4">datos</tspan><tspan x="200.1" y="0" class="st5 st4 st25"> </tspan><tspan x="216.1" y="0" class="st5 st4">recolectados</tspan><tspan x="420.3" y="0" class="st5 st4 st25"> </tspan><tspan x="436.3" y="0" class="st5 st4">a</tspan><tspan x="456.3" y="0" class="st5 st4 st25"> </tspan><tspan x="472.3" y="0" class="st5 st4">disposición</tspan><tspan x="650.4" y="0" class="st5 st4 st25"> </tspan><tspan x="666.4" y="0" class="st5 st4">mediante</tspan><tspan x="814.5" y="0" class="st5 st4 st25"> </tspan><tspan x="830.5" y="0" class="st5 st4">plataformas</tspan><tspan x="1018.6" y="0" class="st5 st4 st25"> </tspan><tspan x="1034.6" y="0" class="st5 st4">o</tspan><tspan x="1054.6" y="0" class="st5 st4 st25"> </tspan><tspan x="1070.6" y="0" class="st5 st4">repositorios</tspan><tspan x="1256.7" y="0" class="st5 st4 st25"> </tspan><tspan x="1272.7" y="0" class="st5 st4">públicos</tspan></text>
<rect x="390.9" y="995" class="st2" width="1536.8" height="42.6"/>
<text transform="matrix(1 0 0 1 390.9375 1025.8896)" class="st24"><tspan x="0" y="0" class="st5 st4">Compartir</tspan><tspan x="158" y="0" class="st5 st4 st27"> </tspan><tspan x="173.4" y="0" class="st5 st4">una</tspan><tspan x="233.5" y="0" class="st5 st4 st27"> </tspan><tspan x="248.9" y="0" class="st5 st4">pre-impresión</tspan><tspan x="469" y="0" class="st5 st4 st27"> </tspan><tspan x="484.4" y="0" class="st5 st4">(pre-print)</tspan><tspan x="642.4" y="0" class="st5 st4 st27"> </tspan><tspan x="657.8" y="0" class="st5 st4">publicándola</tspan><tspan x="860" y="0" class="st5 st4 st27"> </tspan><tspan x="875.4" y="0" class="st5 st4">en</tspan><tspan x="915.4" y="0" class="st5 st4 st27"> </tspan><tspan x="930.9" y="0" class="st5 st4">un</tspan><tspan x="970.9" y="0" class="st5 st4 st27"> </tspan><tspan x="986.3" y="0" class="st5 st4">repositorio</tspan><tspan x="1154.4" y="0" class="st5 st4 st27"> </tspan><tspan x="1169.8" y="0" class="st5 st4">público</tspan><tspan x="1283.9" y="0" class="st5 st4 st27"> </tspan><tspan x="1299.3" y="0" class="st5 st4">o</tspan><tspan x="1319.3" y="0" class="st5 st4 st27"> </tspan><tspan x="1334.7" y="0" class="st5 st4">semi-público</tspan></text>
<rect x="1381.4" y="869.7" class="st2" width="546.2" height="42.6"/>
<text transform="matrix(1 0 0 1 1381.4473 900.5898)" class="st24"><tspan x="0" y="0" class="st5 st4">Usar</tspan><tspan x="76" y="0" class="st5 st4 st28"> </tspan><tspan x="99.5" y="0" class="st5 st4">revisión</tspan><tspan x="223.6" y="0" class="st5 st4 st28"> </tspan><tspan x="247.1" y="0" class="st5 st4">por</tspan><tspan x="299.1" y="0" class="st5 st4 st28"> </tspan><tspan x="322.6" y="0" class="st5 st4">pares</tspan><tspan x="412.7" y="0" class="st5 st4 st28"> </tspan><tspan x="436.2" y="0" class="st5 st4">abierta </tspan></text>
<rect x="891.2" y="619.1" class="st2" width="1036.6" height="42.6"/>
<text transform="matrix(1 0 0 1 891.1582 650.0098)" class="st24"><tspan x="0" y="0" class="st5 st4">Participar</tspan><tspan x="152.1" y="0" class="st5 st4 st25"> </tspan><tspan x="168.8" y="0" class="st5 st4">en</tspan><tspan x="208.9" y="0" class="st5 st4 st25"> </tspan><tspan x="225.6" y="0" class="st5 st4">proyectos</tspan><tspan x="381.7" y="0" class="st5 st4 st25"> </tspan><tspan x="398.4" y="0" class="st5 st4">abiertos</tspan><tspan x="526.5" y="0" class="st5 st4 st25"> </tspan><tspan x="543.3" y="0" class="st5 st4">y</tspan><tspan x="561.3" y="0" class="st5 st4 st25"> </tspan><tspan x="578" y="0" class="st5 st4">colaborativos</tspan><tspan x="790.1" y="0" class="st5 st4 st25"> </tspan><tspan x="806.9" y="0" class="st5 st4">a</tspan><tspan x="826.9" y="0" class="st5 st4 st25"> </tspan><tspan x="843.7" y="0" class="st5 st4">gran</tspan><tspan x="915.7" y="0" class="st5 st4 st25"> </tspan><tspan x="932.5" y="0" class="st5 st4">escala </tspan></text>
<rect x="1457.4" y="741.1" class="st2" width="470.3" height="42.6"/>
<text transform="matrix(1 0 0 1 1457.4375 772.0118)" class="st24"><tspan x="0" y="0" class="st5 st4">Adaptar</tspan><tspan x="126.1" y="0" class="st5 st4 st26"> </tspan><tspan x="140.8" y="0" class="st5 st4">un</tspan><tspan x="180.8" y="0" class="st5 st4 st26"> </tspan><tspan x="195.5" y="0" class="st5 st4">test</tspan><tspan x="253.5" y="0" class="st5 st4 st26"> </tspan><tspan x="268.2" y="0" class="st5 st4">psicométrico</tspan></text>
<rect x="12.7" y="493.8" class="st2" width="1915" height="42.6"/>
<text transform="matrix(1 0 0 1 12.7441 524.7197)" class="st24"><tspan x="0" y="0" class="st5 st4">Poner</tspan><tspan x="96.1" y="0" class="st5 st4 st26"> </tspan><tspan x="110.6" y="0" class="st5 st4">los</tspan><tspan x="156.6" y="0" class="st5 st4 st26"> </tspan><tspan x="171.1" y="0" class="st5 st4">materiales</tspan><tspan x="337.2" y="0" class="st5 st4 st26"> </tspan><tspan x="351.7" y="0" class="st5 st4">(e.g.,</tspan><tspan x="433.7" y="0" class="st5 st4 st26"> </tspan><tspan x="448.2" y="0" class="st5 st4">cuestionarios,</tspan><tspan x="670.3" y="0" class="st5 st4 st26"> </tspan><tspan x="684.8" y="0" class="st5 st4">procedimientos)</tspan><tspan x="941" y="0" class="st5 st4 st26"> </tspan><tspan x="955.5" y="0" class="st5 st4">a</tspan><tspan x="975.5" y="0" class="st5 st4 st26"> </tspan><tspan x="990" y="0" class="st5 st4">disposición</tspan><tspan x="1168.1" y="0" class="st5 st4 st26"> </tspan><tspan x="1182.6" y="0" class="st5 st4">mediante</tspan><tspan x="1330.7" y="0" class="st5 st4 st26"> </tspan><tspan x="1345.2" y="0" class="st5 st4">plataformas</tspan><tspan x="1533.3" y="0" class="st5 st4 st26"> </tspan><tspan x="1547.8" y="0" class="st5 st4">o</tspan><tspan x="1567.8" y="0" class="st5 st4 st26"> </tspan><tspan x="1582.3" y="0" class="st5 st4">repositorios</tspan><tspan x="1768.4" y="0" class="st5 st4 st26"> </tspan><tspan x="1782.9" y="0" class="st5 st4">públicos</tspan></text>
<rect x="1457.4" y="368.5" class="st2" width="470.3" height="42.6"/>
<text transform="matrix(1 0 0 1 1457.4375 399.4302)" class="st24"><tspan x="0" y="0" class="st5 st4">Replicar</tspan><tspan x="132" y="0" class="st5 st4 st29"> </tspan><tspan x="160.1" y="0" class="st5 st4">un</tspan><tspan x="200.1" y="0" class="st5 st4 st29"> </tspan><tspan x="228.1" y="0" class="st5 st4">estudio</tspan><tspan x="344.2" y="0" class="st5 st4 st29"> </tspan><tspan x="372.2" y="0" class="st5 st4">previo</tspan></text>
<rect x="164.7" y="243.2" class="st2" width="1763.1" height="42.6"/>
<text transform="matrix(1 0 0 1 164.6543 274.1401)" class="st24"><tspan x="0" y="0" class="st5 st4">Reportar</tspan><tspan x="140.1" y="0" class="st5 st4 st26"> </tspan><tspan x="154.2" y="0" class="st5 st4">toda</tspan><tspan x="224.3" y="0" class="st5 st4 st26"> </tspan><tspan x="238.5" y="0" class="st5 st4">la</tspan><tspan x="266.5" y="0" class="st5 st4 st26"> </tspan><tspan x="280.6" y="0" class="st5 st4">información</tspan><tspan x="466.7" y="0" class="st5 st4 st26"> </tspan><tspan x="480.9" y="0" class="st5 st4">necesaria</tspan><tspan x="637" y="0" class="st5 st4 st26"> </tspan><tspan x="651.1" y="0" class="st5 st4">detalladamente</tspan><tspan x="897.3" y="0" class="st5 st4 st26"> </tspan><tspan x="911.5" y="0" class="st5 st4">para</tspan><tspan x="983.5" y="0" class="st5 st4 st26"> </tspan><tspan x="997.7" y="0" class="st5 st4">que</tspan><tspan x="1057.8" y="0" class="st5 st4 st26"> </tspan><tspan x="1071.9" y="0" class="st5 st4">otras</tspan><tspan x="1151.9" y="0" class="st5 st4 st26"> </tspan><tspan x="1166.1" y="0" class="st5 st4">personas</tspan><tspan x="1314.2" y="0" class="st5 st4 st26"> </tspan><tspan x="1328.4" y="0" class="st5 st4">puedan</tspan><tspan x="1448.5" y="0" class="st5 st4 st26"> </tspan><tspan x="1462.7" y="0" class="st5 st4">replicar</tspan><tspan x="1580.7" y="0" class="st5 st4 st26"> </tspan><tspan x="1594.9" y="0" class="st5 st4">mi</tspan><tspan x="1632.8" y="0" class="st5 st4 st26"> </tspan><tspan x="1647" y="0" class="st5 st4">estudio</tspan></text>
<rect x="1265.3" y="118" class="st2" width="662.3" height="42.6"/>
<text transform="matrix(1 0 0 1 1265.3438 148.8501)" class="st24"><tspan x="0" y="0" class="st5 st4">Publicar</tspan><tspan x="130.1" y="0" class="st5 st4 st30"> </tspan><tspan x="150.9" y="0" class="st5 st4">en</tspan><tspan x="190.9" y="0" class="st5 st4 st30"> </tspan><tspan x="211.7" y="0" class="st5 st4">revistas</tspan><tspan x="335.7" y="0" class="st5 st4 st30"> </tspan><tspan x="356.6" y="0" class="st5 st4">de</tspan><tspan x="396.6" y="0" class="st5 st4 st30"> </tspan><tspan x="417.4" y="0" class="st5 st4">acceso</tspan><tspan x="531.5" y="0" class="st5 st4 st30"> </tspan><tspan x="552.3" y="0" class="st5 st4">abierto</tspan></text>
</svg>
