<?xml version="1.0" encoding="utf-8"?>
<!-- Generator: Adobe Illustrator 24.0.2, SVG Export Plug-In . SVG Version: 6.00 Build 0)  -->
<svg version="1.1" id="Capa_1" xmlns="http://www.w3.org/2000/svg" xmlns:xlink="http://www.w3.org/1999/xlink" x="0px" y="0px"
	 viewBox="0 0 3600 1800" style="enable-background:new 0 0 3600 1800;" xml:space="preserve">
<style type="text/css">
	.st0{fill:#FFFFFF;}
	.st1{clip-path:url(#SVGID_2_);}
	.st2{fill:none;}
	.st3{font-family:'Arial-BoldMT';}
	.st4{font-size:36px;}
	.st5{font-family:'ArialMT';}
	.st6{clip-path:url(#SVGID_6_);}
	.st7{fill:none;stroke:#000000;stroke-width:0.75;stroke-linecap:round;stroke-linejoin:round;stroke-miterlimit:10;}
	.st8{fill:#E16A86;stroke:#FFFFFF;stroke-width:0.75;stroke-linecap:round;stroke-linejoin:round;stroke-miterlimit:10;}
	.st9{fill:#E790A1;stroke:#FFFFFF;stroke-width:0.75;stroke-linecap:round;stroke-linejoin:round;stroke-miterlimit:10;}
	.st10{fill:#E8BCC4;stroke:#FFFFFF;stroke-width:0.75;stroke-linecap:round;stroke-linejoin:round;stroke-miterlimit:10;}
	.st11{fill:#C1C6E5;stroke:#FFFFFF;stroke-width:0.75;stroke-linecap:round;stroke-linejoin:round;stroke-miterlimit:10;}
	.st12{fill:#98A5E5;stroke:#FFFFFF;stroke-width:0.75;stroke-linecap:round;stroke-linejoin:round;stroke-miterlimit:10;}
	.st13{fill:#768BE6;stroke:#FFFFFF;stroke-width:0.75;stroke-linecap:round;stroke-linejoin:round;stroke-miterlimit:10;}
	.st14{clip-path:url(#SVGID_8_);}
	.st15{fill:none;stroke:#A6A6A6;stroke-width:0.75;stroke-linecap:round;stroke-linejoin:round;stroke-miterlimit:10;}
	.st16{fill:#C1C6E5;stroke:#C1C6E5;stroke-width:0.75;stroke-linecap:round;stroke-linejoin:round;stroke-miterlimit:10;}
	.st17{fill:#98A5E5;stroke:#98A5E5;stroke-width:0.75;stroke-linecap:round;stroke-linejoin:round;stroke-miterlimit:10;}
	.st18{fill:#768BE6;stroke:#768BE6;stroke-width:0.75;stroke-linecap:round;stroke-linejoin:round;stroke-miterlimit:10;}
	.st19{fill:#E8BCC4;stroke:#E8BCC4;stroke-width:0.75;stroke-linecap:round;stroke-linejoin:round;stroke-miterlimit:10;}
	.st20{fill:#E790A1;stroke:#E790A1;stroke-width:0.75;stroke-linecap:round;stroke-linejoin:round;stroke-miterlimit:10;}
	.st21{fill:#E16A86;stroke:#E16A86;stroke-width:0.75;stroke-linecap:round;stroke-linejoin:round;stroke-miterlimit:10;}
	
		.st22{clip-path:url(#SVGID_8_);fill:none;stroke:#000000;stroke-width:0.75;stroke-linecap:round;stroke-linejoin:round;stroke-miterlimit:10;}
	.st23{clip-path:url(#SVGID_8_);fill:none;}
</style>
<rect class="st0" width="3600" height="1800"/>
<g>
	<defs>
		<rect id="SVGID_1_" width="3600" height="1800"/>
	</defs>
	<clipPath id="SVGID_2_">
		<use xlink:href="#SVGID_1_"  style="overflow:visible;"/>
	</clipPath>
	<g class="st1">
		<rect class="st2" width="3600" height="1800"/>
		<rect x="787.7" y="0.9" class="st2" width="2024.6" height="44.4"/>
		<text transform="matrix(1 0 0 1 787.7109 31.7798)" class="st3 st4">Marque la opción que mejor represente su conocimiento y experiencia con cada práctica en los últimos 5 (cinco) años</text>
		<rect x="2695.5" y="1507.7" class="st2" width="124.1" height="42.6"/>
		<text transform="matrix(1 0 0 1 2695.4668 1538.6104)" class="st5 st4">Percent</text>
	</g>
</g>
<g>
	<defs>
		<rect id="SVGID_3_" x="1938.3" y="60.8" width="1638.3" height="1403.3"/>
	</defs>
	<clipPath id="SVGID_4_">
		<use xlink:href="#SVGID_3_"  style="overflow:visible;"/>
	</clipPath>
</g>
<g>
	<defs>
		<rect id="SVGID_5_" width="3600" height="1800"/>
	</defs>
	<clipPath id="SVGID_6_">
		<use xlink:href="#SVGID_5_"  style="overflow:visible;"/>
	</clipPath>
	<g class="st6">
		<line class="st7" x1="2294" y1="60.8" x2="2294" y2="55.1"/>
		<line class="st7" x1="2768" y1="60.8" x2="2768" y2="55.1"/>
		<line class="st7" x1="3242.1" y1="60.8" x2="3242.1" y2="55.1"/>
		<rect x="872.1" y="1370.9" class="st2" width="1060.6" height="42.6"/>
		<text transform="matrix(1 0 0 1 872.1289 1401.7598)" class="st5 st4">Pre-registrar un estudio antes de iniciar la recolección de datos (1)</text>
		<rect x="340" y="1245.6" class="st2" width="1592.7" height="42.6"/>
		<text transform="matrix(1 0 0 1 339.9863 1276.4697)" class="st5 st4">Compartir los métodos analíticos (e.g., scripts de análisis) en plataformas o repositorios públicos (1)</text>
		<rect x="527.9" y="1120.3" class="st2" width="1404.8" height="42.6"/>
		<text transform="matrix(1 0 0 1 527.9141 1151.1797)" class="st5 st4">Poner datos recolectados a disposición mediante plataformas o repositorios públicos (1)</text>
		<rect x="395.9" y="995" class="st2" width="1536.8" height="42.6"/>
		<text transform="matrix(1 0 0 1 395.9375 1025.8896)" class="st5 st4">Compartir una pre-impresión (pre-print) publicándola en un repositorio público o semi-público (1)</text>
		<rect x="1386.4" y="869.7" class="st2" width="546.2" height="42.6"/>
		<text transform="matrix(1 0 0 1 1386.4473 900.5898)" class="st5 st4">Usar revisión por pares abierta (1)</text>
		<text transform="matrix(1 0 0 1 1422.4474 775.3)" class="st5 st4">Adaptar un test psicométrico (1)</text>
		<rect x="896.2" y="619.1" class="st2" width="1036.6" height="42.6"/>
		<text transform="matrix(1 0 0 1 896.1582 650.0098)" class="st5 st4">Participar en proyectos abiertos y colaborativos a gran escala (1)</text>
		<rect x="17.7" y="493.8" class="st2" width="1915" height="42.6"/>
		<text transform="matrix(1 0 0 1 17.7441 524.7197)" class="st5 st4">Poner los materiales (e.g., cuestionarios, procedimientos) a disposición mediante plataformas o repositorios públicos (1)</text>
		<rect x="1462.4" y="368.5" class="st2" width="470.3" height="42.6"/>
		<text transform="matrix(1 0 0 1 1462.4375 399.4302)" class="st5 st4">Replicar un estudio previo (1)</text>
		<rect x="169.7" y="243.2" class="st2" width="1763.1" height="42.6"/>
		<text transform="matrix(1 0 0 1 169.6543 274.1401)" class="st5 st4">Reportar toda la información necesaria detalladamente para que otras personas puedan replicar mi estudio (1)</text>
		<rect x="1270.3" y="118" class="st2" width="662.3" height="42.6"/>
		<text transform="matrix(1 0 0 1 1270.3438 148.8501)" class="st5 st4">Publicar en revistas de acceso abierto (1)</text>
		<line class="st7" x1="2294" y1="1464.1" x2="2294" y2="1469.7"/>
		<line class="st7" x1="2768" y1="1464.1" x2="2768" y2="1469.7"/>
		<line class="st7" x1="3242.1" y1="1464.1" x2="3242.1" y2="1469.7"/>
		<rect x="2274" y="1470.3" class="st2" width="40" height="42.6"/>
		<text transform="matrix(1 0 0 1 2273.959 1501.1602)" class="st5 st4">50</text>
		<text transform="matrix(1 0 0 1 2758.0193 1501.16)" class="st5 st4">0</text>
		<rect x="3222.1" y="1470.3" class="st2" width="40" height="42.6"/>
		<text transform="matrix(1 0 0 1 3222.0684 1501.1602)" class="st5 st4">50</text>
	</g>
</g>
<g>
	<rect x="2114.8" y="1586.8" class="st2" width="638.4" height="42.6"/>
	<text transform="matrix(1 0 0 1 2114.7798 1617.7214)" class="st5 st4">Nunca lo hice, ni escuché hablar de eso</text>
	<rect x="2813.2" y="1590.5" class="st8" width="13.4" height="28.7"/>
	<rect x="2070.7" y="1634.4" class="st2" width="682.5" height="42.6"/>
	<text transform="matrix(1 0 0 1 2070.7397 1665.3043)" class="st5 st4">Nunca lo hice, pero escuché hablar de eso</text>
	<rect x="2813.2" y="1638.1" class="st9" width="13.4" height="28.7"/>
	<rect x="2168.9" y="1682" class="st2" width="584.3" height="42.6"/>
	<text transform="matrix(1 0 0 1 2168.8696 1712.8872)" class="st5 st4">Nunca lo hice, pero sé cómo hacerlo</text>
	<rect x="2813.2" y="1685.7" class="st10" width="13.4" height="28.7"/>
	<rect x="2876.6" y="1586.8" class="st2" width="494.4" height="42.6"/>
	<text transform="matrix(1 0 0 1 2876.5596 1617.7212)" class="st5 st4">Lo intenté, pero no lo completé</text>
	<rect x="3430.9" y="1590.5" class="st11" width="13.4" height="28.7"/>
	<rect x="2876.6" y="1634.4" class="st2" width="334.2" height="42.6"/>
	<text transform="matrix(1 0 0 1 2876.5596 1665.3041)" class="st5 st4">Sí, lo estoy haciendo</text>
	<rect x="3430.9" y="1638.9" class="st12" width="13.4" height="28.7"/>
	<rect x="2876.6" y="1682" class="st2" width="240.2" height="42.6"/>
	<text transform="matrix(1 0 0 1 2876.5596 1712.887)" class="st5 st4">Sí, lo he hecho</text>
	<rect x="3430.9" y="1686.5" class="st13" width="13.4" height="28.7"/>
</g>
<g>
	<defs>
		<rect id="SVGID_7_" x="1938.3" y="60.8" width="1638.3" height="1403.3"/>
	</defs>
	<clipPath id="SVGID_8_">
		<use xlink:href="#SVGID_7_"  style="overflow:visible;"/>
	</clipPath>
	<g class="st14">
		<line class="st15" x1="2768" y1="1464.1" x2="2768" y2="60.8"/>
		<rect x="2768" y="1347.1" class="st16" width="21.1" height="83.5"/>
		<rect x="2789.1" y="1347.1" class="st17" width="84.3" height="83.5"/>
		<rect x="2873.4" y="1347.1" class="st18" width="73.7" height="83.5"/>
		<rect x="2631.1" y="1347.1" class="st19" width="136.9" height="83.5"/>
		<rect x="2294" y="1347.1" class="st20" width="337.1" height="83.5"/>
		<rect x="1999" y="1347.1" class="st21" width="295" height="83.5"/>
		<rect x="2768" y="1221.8" class="st16" width="31.6" height="83.5"/>
		<rect x="2799.6" y="1221.8" class="st17" width="94.8" height="83.5"/>
		<rect x="2894.4" y="1221.8" class="st18" width="126.4" height="83.5"/>
		<rect x="2546.8" y="1221.8" class="st19" width="221.2" height="83.5"/>
		<rect x="2157" y="1221.8" class="st20" width="389.8" height="83.5"/>
		<rect x="2072.8" y="1221.8" class="st21" width="84.3" height="83.5"/>
		<rect x="2768" y="1096.5" class="st17" width="105.3" height="83.5"/>
		<rect x="2873.4" y="1096.5" class="st18" width="158" height="83.5"/>
		<rect x="2494.1" y="1096.5" class="st19" width="273.9" height="83.5"/>
		<rect x="2157" y="1096.5" class="st20" width="337.1" height="83.5"/>
		<rect x="2083.3" y="1096.5" class="st21" width="73.7" height="83.5"/>
		<rect x="2768" y="971.2" class="st16" width="21.1" height="83.5"/>
		<rect x="2789.1" y="971.2" class="st17" width="84.3" height="83.5"/>
		<rect x="2873.4" y="971.2" class="st18" width="189.6" height="83.5"/>
		<rect x="2515.2" y="971.2" class="st19" width="252.8" height="83.5"/>
		<rect x="2178.1" y="971.2" class="st20" width="337.1" height="83.5"/>
		<rect x="2114.9" y="971.2" class="st21" width="63.2" height="83.5"/>
		<rect x="2768" y="845.9" class="st16" width="42.1" height="83.5"/>
		<rect x="2810.2" y="845.9" class="st17" width="84.3" height="83.5"/>
		<rect x="2894.4" y="845.9" class="st18" width="231.8" height="83.5"/>
		<rect x="2620.6" y="845.9" class="st19" width="147.5" height="83.5"/>
		<rect x="2367.7" y="845.9" class="st20" width="252.8" height="83.5"/>
		<rect x="2178.1" y="845.9" class="st21" width="189.6" height="83.5"/>
		<rect x="2768" y="720.7" class="st16" width="21.1" height="83.5"/>
		<rect x="2789.1" y="720.7" class="st17" width="105.3" height="83.5"/>
		<rect x="2894.4" y="720.7" class="st18" width="231.8" height="83.5"/>
		<rect x="2588.9" y="720.7" class="st19" width="179.1" height="83.5"/>
		<rect x="2251.8" y="720.7" class="st20" width="337.1" height="83.5"/>
		<rect x="2178.1" y="720.7" class="st21" width="73.7" height="83.5"/>
		<rect x="2768" y="595.4" class="st16" width="52.7" height="83.5"/>
		<rect x="2820.7" y="595.4" class="st17" width="126.4" height="83.5"/>
		<rect x="2947.1" y="595.4" class="st18" width="189.6" height="83.5"/>
		<rect x="2567.9" y="595.4" class="st19" width="200.2" height="83.5"/>
		<rect x="2241.3" y="595.4" class="st20" width="326.6" height="83.5"/>
		<rect x="2188.6" y="595.4" class="st21" width="52.7" height="83.5"/>
		<rect x="2768" y="470.1" class="st16" width="63.2" height="83.5"/>
		<rect x="2831.2" y="470.1" class="st17" width="126.4" height="83.5"/>
		<rect x="2957.6" y="470.1" class="st18" width="189.6" height="83.5"/>
		<rect x="2536.3" y="470.1" class="st19" width="231.8" height="83.5"/>
		<rect x="2209.7" y="470.1" class="st20" width="326.6" height="83.5"/>
		<rect x="2199.2" y="470.1" class="st21" width="10.5" height="83.5"/>
		<rect x="2768" y="344.8" class="st16" width="21.1" height="83.5"/>
		<rect x="2789.1" y="344.8" class="st17" width="115.9" height="83.5"/>
		<rect x="2905" y="344.8" class="st18" width="263.4" height="83.5"/>
		<rect x="2462.5" y="344.8" class="st19" width="305.5" height="83.5"/>
		<rect x="2241.3" y="344.8" class="st20" width="221.2" height="83.5"/>
		<rect x="2220.2" y="344.8" class="st21" width="21.1" height="83.5"/>
		<rect x="2768" y="219.5" class="st16" width="42.1" height="83.5"/>
		<rect x="2810.2" y="219.5" class="st17" width="210.7" height="83.5"/>
		<rect x="3020.9" y="219.5" class="st18" width="421.4" height="83.5"/>
		<rect x="2652.1" y="219.5" class="st19" width="115.9" height="83.5"/>
		<rect x="2494.1" y="219.5" class="st20" width="158" height="83.5"/>
		<rect x="2768" y="94.2" class="st16" width="31.6" height="83.5"/>
		<rect x="2799.6" y="94.2" class="st17" width="179.1" height="83.5"/>
		<rect x="2978.7" y="94.2" class="st18" width="537.3" height="83.5"/>
		<rect x="2641.6" y="94.2" class="st19" width="126.4" height="83.5"/>
		<rect x="2567.9" y="94.2" class="st20" width="73.7" height="83.5"/>
	</g>
	<rect x="1938.3" y="60.8" class="st22" width="1638.3" height="1403.3"/>
	<rect x="2405.6" y="1538.6" class="st23" width="703.9" height="249.4"/>
</g>
<rect class="st2" width="3600" height="1800"/>
</svg>
